<svg width="23" height="22" viewBox="0 0 23 22" fill="none" xmlns="http://www.w3.org/2000/svg">
<path d="M4.67372 5.5V5H4.17372H3.48622C3.43649 5 3.3888 4.98025 3.35364 4.94508C3.31848 4.90992 3.29872 4.86223 3.29872 4.8125C3.29872 4.76277 3.31848 4.71508 3.35364 4.67992C3.3888 4.64475 3.43649 4.625 3.48622 4.625H18.6112C18.6609 4.625 18.7086 4.64475 18.7438 4.67992C18.779 4.71508 18.7987 4.76277 18.7987 4.8125C18.7987 4.86223 18.779 4.90992 18.7438 4.94508C18.7086 4.98025 18.6609 5 18.6112 5H17.9237H17.4237V5.5V17.875C17.4237 18.1071 17.3315 18.3296 17.1674 18.4937C17.0033 18.6578 16.7808 18.75 16.5487 18.75H5.54872C5.31666 18.75 5.0941 18.6578 4.93 18.4937C4.76591 18.3296 4.67372 18.1071 4.67372 17.875V5.5ZM16.5487 18.375H17.0487V17.875V5.5V5H16.5487H5.54872H5.04872V5.5V17.875V18.375H5.54872H16.5487ZM7.42372 2.0625C7.42372 2.01277 7.44348 1.96508 7.47864 1.92992C7.5138 1.89475 7.56149 1.875 7.61122 1.875H14.4862C14.5359 1.875 14.5836 1.89475 14.6188 1.92992C14.654 1.96508 14.6737 2.01277 14.6737 2.0625C14.6737 2.11223 14.654 2.15992 14.6188 2.19508C14.5836 2.23025 14.5359 2.25 14.4862 2.25H7.61122C7.56149 2.25 7.5138 2.23025 7.47864 2.19508C7.44348 2.15992 7.42372 2.11223 7.42372 2.0625Z" fill="#9E78CF" stroke="black"/>
</svg>
